<svg width="156" height="45" viewBox="0 0 156 45" fill="none" xmlns="http://www.w3.org/2000/svg">
<path d="M24.3209 10.6821V36.4761H22.5749C22.2989 36.4761 22.0649 36.4281 21.8729 36.3321C21.6929 36.2361 21.5129 36.0741 21.3329 35.8461L6.41091 16.4061C6.43491 16.7061 6.45291 17.0001 6.46491 17.2881C6.47691 17.5761 6.48291 17.8461 6.48291 18.0981V36.4761H3.42291V10.6821H5.22291C5.37891 10.6821 5.51091 10.6941 5.61891 10.7181C5.72691 10.7301 5.82291 10.7601 5.90691 10.8081C5.99091 10.8441 6.07491 10.9041 6.15891 10.9881C6.24291 11.0601 6.33291 11.1561 6.42891 11.2761L21.3509 30.6981C21.3269 30.3861 21.3029 30.0861 21.2789 29.7981C21.2669 29.4981 21.2609 29.2161 21.2609 28.9521V10.6821H24.3209ZM37.2826 17.9541C38.6146 17.9541 39.8146 18.1761 40.8826 18.6201C41.9506 19.0641 42.8626 19.6941 43.6186 20.5101C44.3746 21.3261 44.9506 22.3161 45.3466 23.4801C45.7546 24.6321 45.9586 25.9221 45.9586 27.3501C45.9586 28.7901 45.7546 30.0861 45.3466 31.2381C44.9506 32.3901 44.3746 33.3741 43.6186 34.1901C42.8626 35.0061 41.9506 35.6361 40.8826 36.0801C39.8146 36.5121 38.6146 36.7281 37.2826 36.7281C35.9386 36.7281 34.7266 36.5121 33.6466 36.0801C32.5786 35.6361 31.6666 35.0061 30.9106 34.1901C30.1546 33.3741 29.5726 32.3901 29.1646 31.2381C28.7686 30.0861 28.5706 28.7901 28.5706 27.3501C28.5706 25.9221 28.7686 24.6321 29.1646 23.4801C29.5726 22.3161 30.1546 21.3261 30.9106 20.5101C31.6666 19.6941 32.5786 19.0641 33.6466 18.6201C34.7266 18.1761 35.9386 17.9541 37.2826 17.9541ZM37.2826 34.2261C39.0826 34.2261 40.4266 33.6261 41.3146 32.4261C42.2026 31.2141 42.6466 29.5281 42.6466 27.3681C42.6466 25.1961 42.2026 23.5041 41.3146 22.2921C40.4266 21.0801 39.0826 20.4741 37.2826 20.4741C36.3706 20.4741 35.5726 20.6301 34.8886 20.9421C34.2166 21.2541 33.6526 21.7041 33.1966 22.2921C32.7526 22.8801 32.4166 23.6061 32.1886 24.4701C31.9726 25.3221 31.8646 26.2881 31.8646 27.3681C31.8646 29.5281 32.3086 31.2141 33.1966 32.4261C34.0966 33.6261 35.4586 34.2261 37.2826 34.2261ZM53.0644 21.8961C53.6404 20.6481 54.3484 19.6761 55.1884 18.9801C56.0284 18.2721 57.0544 17.9181 58.2664 17.9181C58.6504 17.9181 59.0164 17.9601 59.3644 18.0441C59.7244 18.1281 60.0424 18.2601 60.3184 18.4401L60.0844 20.8341C60.0124 21.1341 59.8324 21.2841 59.5444 21.2841C59.3764 21.2841 59.1304 21.2481 58.8064 21.1761C58.4824 21.1041 58.1164 21.0681 57.7084 21.0681C57.1324 21.0681 56.6164 21.1521 56.1604 21.3201C55.7164 21.4881 55.3144 21.7401 54.9544 22.0761C54.6064 22.4001 54.2884 22.8081 54.0004 23.3001C53.7244 23.7801 53.4724 24.3321 53.2444 24.9561V36.4761H50.0224V18.2421H51.8584C52.2064 18.2421 52.4464 18.3081 52.5784 18.4401C52.7104 18.5721 52.8004 18.8001 52.8484 19.1241L53.0644 21.8961ZM68.7337 36.7641C67.2937 36.7641 66.1837 36.3621 65.4037 35.5581C64.6357 34.7541 64.2517 33.5961 64.2517 32.0841V20.9241H62.0557C61.8637 20.9241 61.7017 20.8701 61.5697 20.7621C61.4377 20.6421 61.3717 20.4621 61.3717 20.2221V18.9441L64.3597 18.5661L65.0977 12.9321C65.1337 12.7521 65.2117 12.6081 65.3317 12.5001C65.4637 12.3801 65.6317 12.3201 65.8357 12.3201H67.4557V18.6021H72.7297V20.9241H67.4557V31.8681C67.4557 32.6361 67.6417 33.2061 68.0137 33.5781C68.3857 33.9501 68.8657 34.1361 69.4537 34.1361C69.7897 34.1361 70.0777 34.0941 70.3177 34.0101C70.5697 33.9141 70.7857 33.8121 70.9657 33.7041C71.1457 33.5961 71.2957 33.5001 71.4157 33.4161C71.5477 33.3201 71.6617 33.2721 71.7577 33.2721C71.9257 33.2721 72.0757 33.3741 72.2077 33.5781L73.1437 35.1081C72.5917 35.6241 71.9257 36.0321 71.1457 36.3321C70.3657 36.6201 69.5617 36.7641 68.7337 36.7641ZM79.26 20.6721C80.04 19.8441 80.904 19.1841 81.852 18.6921C82.8 18.2001 83.892 17.9541 85.128 17.9541C86.124 17.9541 87 18.1221 87.756 18.4581C88.524 18.7821 89.16 19.2501 89.664 19.8621C90.18 20.4621 90.57 21.1881 90.834 22.0401C91.098 22.8921 91.23 23.8341 91.23 24.8661V36.4761H88.008V24.8661C88.008 23.4861 87.69 22.4181 87.054 21.6621C86.43 20.8941 85.476 20.5101 84.192 20.5101C83.244 20.5101 82.356 20.7381 81.528 21.1941C80.712 21.6501 79.956 22.2681 79.26 23.0481V36.4761H76.038V9.96207H79.26V20.6721ZM109.711 14.7141C109.603 14.8941 109.483 15.0321 109.351 15.1281C109.231 15.2121 109.081 15.2541 108.901 15.2541C108.697 15.2541 108.457 15.1521 108.181 14.9481C107.905 14.7441 107.557 14.5221 107.137 14.2821C106.729 14.0301 106.231 13.8021 105.643 13.5981C105.067 13.3941 104.365 13.2921 103.537 13.2921C102.757 13.2921 102.067 13.4001 101.467 13.6161C100.879 13.8201 100.381 14.1021 99.9727 14.4621C99.5767 14.8221 99.2767 15.2481 99.0727 15.7401C98.8687 16.2201 98.7667 16.7421 98.7667 17.3061C98.7667 18.0261 98.9407 18.6261 99.2887 19.1061C99.6487 19.5741 100.117 19.9761 100.693 20.3121C101.281 20.6481 101.941 20.9421 102.673 21.1941C103.417 21.4341 104.173 21.6861 104.941 21.9501C105.721 22.2141 106.477 22.5141 107.209 22.8501C107.953 23.1741 108.613 23.5881 109.189 24.0921C109.777 24.5961 110.245 25.2141 110.593 25.9461C110.953 26.6781 111.133 27.5781 111.133 28.6461C111.133 29.7741 110.941 30.8361 110.557 31.8321C110.173 32.8161 109.609 33.6741 108.865 34.4061C108.133 35.1381 107.227 35.7141 106.147 36.1341C105.079 36.5541 103.861 36.7641 102.493 36.7641C100.813 36.7641 99.2887 36.4641 97.9207 35.8641C96.5527 35.2521 95.3827 34.4301 94.4107 33.3981L95.4187 31.7421C95.5147 31.6101 95.6287 31.5021 95.7607 31.4181C95.9047 31.3221 96.0607 31.2741 96.2287 31.2741C96.3847 31.2741 96.5587 31.3401 96.7507 31.4721C96.9547 31.5921 97.1827 31.7481 97.4347 31.9401C97.6867 32.1321 97.9747 32.3421 98.2987 32.5701C98.6227 32.7981 98.9887 33.0081 99.3967 33.2001C99.8167 33.3921 100.291 33.5541 100.819 33.6861C101.347 33.8061 101.941 33.8661 102.601 33.8661C103.429 33.8661 104.167 33.7521 104.815 33.5241C105.463 33.2961 106.009 32.9781 106.453 32.5701C106.909 32.1501 107.257 31.6521 107.497 31.0761C107.737 30.5001 107.857 29.8581 107.857 29.1501C107.857 28.3701 107.677 27.7341 107.317 27.2421C106.969 26.7381 106.507 26.3181 105.931 25.9821C105.355 25.6461 104.695 25.3641 103.951 25.1361C103.207 24.8961 102.451 24.6561 101.683 24.4161C100.915 24.1641 100.159 23.8761 99.4147 23.5521C98.6707 23.2281 98.0107 22.8081 97.4347 22.2921C96.8587 21.7761 96.3907 21.1341 96.0307 20.3661C95.6827 19.5861 95.5087 18.6261 95.5087 17.4861C95.5087 16.5741 95.6827 15.6921 96.0307 14.8401C96.3907 13.9881 96.9067 13.2321 97.5787 12.5721C98.2627 11.9121 99.0967 11.3841 100.081 10.9881C101.077 10.5921 102.217 10.3941 103.501 10.3941C104.941 10.3941 106.249 10.6221 107.425 11.0781C108.613 11.5341 109.657 12.1941 110.557 13.0581L109.711 14.7141ZM120.097 36.7641C118.657 36.7641 117.547 36.3621 116.767 35.5581C115.999 34.7541 115.615 33.5961 115.615 32.0841V20.9241H113.419C113.227 20.9241 113.065 20.8701 112.933 20.7621C112.801 20.6421 112.735 20.4621 112.735 20.2221V18.9441L115.723 18.5661L116.461 12.9321C116.497 12.7521 116.575 12.6081 116.695 12.5001C116.827 12.3801 116.995 12.3201 117.199 12.3201H118.819V18.6021H124.093V20.9241H118.819V31.8681C118.819 32.6361 119.005 33.2061 119.377 33.5781C119.749 33.9501 120.229 34.1361 120.817 34.1361C121.153 34.1361 121.441 34.0941 121.681 34.0101C121.933 33.9141 122.149 33.8121 122.329 33.7041C122.509 33.5961 122.659 33.5001 122.779 33.4161C122.911 33.3201 123.025 33.2721 123.121 33.2721C123.289 33.2721 123.439 33.3741 123.571 33.5781L124.507 35.1081C123.955 35.6241 123.289 36.0321 122.509 36.3321C121.729 36.6201 120.925 36.7641 120.097 36.7641ZM137.283 28.2681C135.807 28.3161 134.547 28.4361 133.503 28.6281C132.471 28.8081 131.625 29.0481 130.965 29.3481C130.317 29.6481 129.843 30.0021 129.543 30.4101C129.255 30.8181 129.111 31.2741 129.111 31.7781C129.111 32.2581 129.189 32.6721 129.345 33.0201C129.501 33.3681 129.711 33.6561 129.975 33.8841C130.251 34.1001 130.569 34.2621 130.929 34.3701C131.301 34.4661 131.697 34.5141 132.117 34.5141C132.681 34.5141 133.197 34.4601 133.665 34.3521C134.133 34.2321 134.571 34.0641 134.979 33.8481C135.399 33.6321 135.795 33.3741 136.167 33.0741C136.551 32.7741 136.923 32.4321 137.283 32.0481V28.2681ZM126.933 20.8161C127.941 19.8441 129.027 19.1181 130.191 18.6381C131.355 18.1581 132.645 17.9181 134.061 17.9181C135.081 17.9181 135.987 18.0861 136.779 18.4221C137.571 18.7581 138.237 19.2261 138.777 19.8261C139.317 20.4261 139.725 21.1521 140.001 22.0041C140.277 22.8561 140.415 23.7921 140.415 24.8121V36.4761H138.993C138.681 36.4761 138.441 36.4281 138.273 36.3321C138.105 36.2241 137.973 36.0201 137.877 35.7201L137.517 33.9921C137.037 34.4361 136.569 34.8321 136.113 35.1801C135.657 35.5161 135.177 35.8041 134.673 36.0441C134.169 36.2721 133.629 36.4461 133.053 36.5661C132.489 36.6981 131.859 36.7641 131.163 36.7641C130.455 36.7641 129.789 36.6681 129.165 36.4761C128.541 36.2721 127.995 35.9721 127.527 35.5761C127.071 35.1801 126.705 34.6821 126.429 34.0821C126.165 33.4701 126.033 32.7501 126.033 31.9221C126.033 31.2021 126.231 30.5121 126.627 29.8521C127.023 29.1801 127.665 28.5861 128.553 28.0701C129.441 27.5541 130.599 27.1341 132.027 26.8101C133.455 26.4741 135.207 26.2821 137.283 26.2341V24.8121C137.283 23.3961 136.977 22.3281 136.365 21.6081C135.753 20.8761 134.859 20.5101 133.683 20.5101C132.891 20.5101 132.225 20.6121 131.685 20.8161C131.157 21.0081 130.695 21.2301 130.299 21.4821C129.915 21.7221 129.579 21.9441 129.291 22.1481C129.015 22.3401 128.739 22.4361 128.463 22.4361C128.247 22.4361 128.061 22.3821 127.905 22.2741C127.749 22.1541 127.617 22.0101 127.509 21.8421L126.933 20.8161ZM148.338 21.8961C148.914 20.6481 149.622 19.6761 150.462 18.9801C151.302 18.2721 152.328 17.9181 153.54 17.9181C153.924 17.9181 154.29 17.9601 154.638 18.0441C154.998 18.1281 155.316 18.2601 155.592 18.4401L155.358 20.8341C155.286 21.1341 155.106 21.2841 154.818 21.2841C154.65 21.2841 154.404 21.2481 154.08 21.1761C153.756 21.1041 153.39 21.0681 152.982 21.0681C152.406 21.0681 151.89 21.1521 151.434 21.3201C150.99 21.4881 150.588 21.7401 150.228 22.0761C149.88 22.4001 149.562 22.8081 149.274 23.3001C148.998 23.7801 148.746 24.3321 148.518 24.9561V36.4761H145.296V18.2421H147.132C147.48 18.2421 147.72 18.3081 147.852 18.4401C147.984 18.5721 148.074 18.8001 148.122 19.1241L148.338 21.8961Z" fill="#1D1D1D"/>
</svg>
